<svg aria-hidden="true" style="position: absolute; width: 0; height: 0; overflow: hidden;" version="1.1" xmlns="http://www.w3.org/2000/svg" xmlns:xlink="http://www.w3.org/1999/xlink">
<defs>
<symbol id="icon-book" viewBox="0 0 32 32">
<title>book</title>
<path d="M31.092 7.635c-0.060-0.002-1.296-0.044-3.11-0.004v-3.72c0-0.548-0.468-0.983-1.019-0.938-3.617 0.302-8.22 1.9-10.962 4.816-2.742-2.915-7.345-4.514-10.962-4.816-0.55-0.045-1.019 0.388-1.019 0.938v3.82c-1.031-0.039-2.006-0.066-3.050-0.097-0.526-0.017-0.969 0.407-0.969 0.941v17.14c0 0.495 0.384 0.906 0.878 0.939 3.744 0.252 10.015 0.28 14.753 2.301 0.422 0.18 0.801-0.027 0.738 0 4.738-2.021 11.008-2.049 14.753-2.301 0.494-0.033 0.878-0.444 0.878-0.939v-17.14c-0-0.507-0.402-0.923-0.909-0.941zM26.099 4.97v16.131c-2.714 0.607-6.154 1.903-9.158 4.65 0-0.829 0-15.73 0-16.178 2.059-2.569 5.959-4.118 9.158-4.603zM5.901 4.97c3.199 0.485 7.099 2.033 9.158 4.603v16.178c-3.004-2.747-6.444-4.043-9.158-4.65zM1.882 24.83v-15.285c0.674 0.020 1.395 0.042 2.136 0.071v12.253c0 0.453 0.322 0.841 0.768 0.925 2.149 0.403 4.944 1.279 7.548 3.164-3.716-0.833-7.606-0.967-10.452-1.127zM30.118 24.83c-2.842 0.16-6.735 0.294-10.452 1.127 2.605-1.885 5.399-2.761 7.548-3.164 0.445-0.084 0.768-0.472 0.768-0.925v-12.354c0.866-0.019 1.604-0.020 2.136-0.015v15.331z"></path>
<path d="M12.618 11.741c-0.729-0.508-1.986-1.131-3.327-1.358-0.512-0.087-0.998 0.259-1.085 0.771s0.259 0.998 0.771 1.085c1.035 0.175 2.029 0.673 2.564 1.046 0.426 0.297 1.013 0.192 1.31-0.234s0.192-1.013-0.234-1.31z"></path>
<path d="M12.524 17.041c-0.671-0.41-1.982-1.128-3.233-1.339-0.512-0.087-0.998 0.259-1.085 0.771s0.259 0.998 0.771 1.085c0.974 0.165 2.118 0.817 2.565 1.090 0.444 0.271 1.023 0.13 1.294-0.313s0.131-1.023-0.313-1.294z"></path>
<path d="M20.458 13.285c0.536-0.373 1.529-0.871 2.564-1.046 0.512-0.087 0.858-0.572 0.771-1.085s-0.573-0.858-1.085-0.771c-1.341 0.227-2.598 0.85-3.327 1.358-0.426 0.297-0.531 0.884-0.234 1.31s0.884 0.531 1.31 0.234z"></path>
<path d="M22.708 15.701c-1.25 0.211-2.562 0.93-3.233 1.339-0.444 0.271-0.584 0.85-0.313 1.294s0.85 0.584 1.294 0.313c0.447-0.273 1.591-0.925 2.565-1.090 0.512-0.087 0.858-0.572 0.771-1.085s-0.573-0.858-1.085-0.771z"></path>
</symbol>
<symbol id="icon-computer" viewBox="0 0 32 32">
<title>computer</title>
<path d="M29 0h-26c-1.657 0-3 1.343-3 3v20c0 0.552 0.448 1 1 1h8.85l-0.71 5h-1.14c-0.552 0-1 0.448-1 1h-2v2h22v-2h-2c0-0.552-0.448-1-1-1h-1.13l-0.71-5h8.84c0.552 0 1-0.448 1-1v-20c0-1.657-1.343-3-3-3zM11.15 29l0.71-5h8.27l0.71 5h-9.69zM30 22h-28v-3h28v3zM6 17v-11h20v11h-20zM30 17h-2v-12c0-0.552-0.448-1-1-1h-22c-0.552 0-1 0.448-1 1v12h-2v-14c0-0.552 0.448-1 1-1h26c0.552 0 1 0.448 1 1v14z"></path>
<path d="M18.71 10.29c-0.39-0.388-1.020-0.388-1.41 0l-0.29 0.29-1.3-1.29c-0.39-0.388-1.020-0.388-1.41 0l-3 3c-0.392 0.389-0.395 1.022-0.006 1.414 0.187 0.188 0.441 0.295 0.706 0.296h8c0.552 0.003 1.003-0.442 1.006-0.994 0.002-0.269-0.105-0.527-0.296-0.716l-2-2z"></path>
</symbol>
<symbol id="icon-frame" viewBox="0 0 32 32">
<title>frame</title>
<path d="M31.467 2.667h-30.933c-0.295 0-0.533 0.239-0.533 0.533v25.6c0 0.295 0.239 0.533 0.533 0.533h30.933c0.295 0 0.533-0.239 0.533-0.533v-25.6c0-0.295-0.239-0.533-0.533-0.533zM30.933 28.267h-29.867v-24.533h29.867z"></path>
<path d="M2.667 13.333h2.133c0.295 0 0.533-0.239 0.533-0.533v-4.8h4.8c0.295 0 0.533-0.239 0.533-0.533v-2.133c0-0.295-0.239-0.533-0.533-0.533h-7.467c-0.295 0-0.533 0.239-0.533 0.533v7.467c0 0.295 0.239 0.533 0.533 0.533zM3.2 5.867h6.4v1.067h-4.8c-0.295 0-0.533 0.239-0.533 0.533v4.8h-1.067z"></path>
<path d="M2.667 27.2h7.467c0.295 0 0.533-0.239 0.533-0.533v-2.133c0-0.295-0.239-0.533-0.533-0.533h-4.8v-4.8c0-0.295-0.239-0.533-0.533-0.533h-2.133c-0.295 0-0.533 0.239-0.533 0.533v7.467c0 0.295 0.239 0.533 0.533 0.533zM3.2 19.733h1.067v4.8c0 0.295 0.239 0.533 0.533 0.533h4.8v1.067h-6.4z"></path>
<path d="M21.867 8h4.8v4.8c0 0.295 0.239 0.533 0.533 0.533h2.133c0.295 0 0.533-0.239 0.533-0.533v-7.467c0-0.295-0.239-0.533-0.533-0.533h-7.467c-0.295 0-0.533 0.239-0.533 0.533v2.133c0 0.295 0.239 0.533 0.533 0.533zM22.4 5.867h6.4v6.4h-1.067v-4.8c0-0.295-0.239-0.533-0.533-0.533h-4.8z"></path>
<path d="M21.867 27.2h7.467c0.295 0 0.533-0.239 0.533-0.533v-7.467c0-0.295-0.239-0.533-0.533-0.533h-2.133c-0.295 0-0.533 0.239-0.533 0.533v4.8h-4.8c-0.295 0-0.533 0.239-0.533 0.533v2.133c0 0.295 0.239 0.533 0.533 0.533zM22.4 25.067h4.8c0.295 0 0.533-0.239 0.533-0.533v-4.8h1.067v6.4h-6.4z"></path>
</symbol>
<symbol id="icon-icon-clock" viewBox="0 0 32 32">
<title>icon-clock</title>
<path d="M30.74 10.003c-1.584-3.696-4.547-6.66-8.243-8.243 1-0.787 2.258-1.26 3.629-1.26 3.244 0 5.874 2.63 5.874 5.874 0 1.371-0.473 2.629-1.26 3.629zM30.5 16.5c0 3.852-1.512 7.343-3.963 9.94l2.029 2.028c0.268 0.269 0.434 0.639 0.434 1.049 0 0.819-0.664 1.483-1.483 1.483-0.41 0-0.781-0.166-1.049-0.435l-2.178-2.178c-2.351 1.642-5.205 2.613-8.29 2.613-3.079 0-5.928-0.966-8.276-2.603l-2.163 2.163c-0.272 0.272-0.647 0.44-1.061 0.44-0.828 0-1.5-0.672-1.5-1.501 0-0.413 0.168-0.789 0.439-1.060l2.012-2.012c-2.443-2.595-3.951-6.082-3.951-9.927 0-8.008 6.492-14.5 14.5-14.5s14.5 6.492 14.5 14.5zM16 5c-6.351 0-11.5 5.148-11.5 11.5 0 6.351 5.149 11.5 11.5 11.5s11.5-5.149 11.5-11.5c0-6.352-5.149-11.5-11.5-11.5zM22 18h-6c-0.828 0-1.5-0.672-1.5-1.5v-8c0-0.828 0.672-1.5 1.5-1.5s1.5 0.672 1.5 1.5v6.499h4.5c0.828 0 1.5 0.672 1.5 1.501 0 0.828-0.672 1.5-1.5 1.5zM1.287 10.205c-0.804-1.020-1.287-2.305-1.287-3.705 0-3.314 2.686-6 6-6 1.4 0 2.685 0.483 3.706 1.287-3.775 1.617-6.802 4.644-8.419 8.418z"></path>
</symbol>
<symbol id="icon-icon-graph" viewBox="0 0 32 32">
<title>icon-graph</title>
<path d="M30.5 32h-29c-0.828 0-1.5-0.672-1.5-1.5v-29.001c0-0.827 0.672-1.499 1.5-1.499h29c0.828 0 1.5 0.672 1.5 1.499v29.001c0 0.828-0.672 1.5-1.5 1.5zM29 3h-26v26h26v-26zM5.215 16.239v-0.002l4-2.498c0.229-0.141 0.497-0.222 0.785-0.222 0.311 0 0.6 0.095 0.84 0.257l0.006-0.008 6.631 4.42 7.638-5.391c0.248-0.182 0.554-0.29 0.885-0.29 0.828 0 1.5 0.672 1.5 1.5 0 0.5-0.245 0.943-0.622 1.216h0.001l-8.501 6c-0.246 0.179-0.55 0.284-0.878 0.284-0.321 0-0.618-0.101-0.861-0.272l-6.657-4.438-3.135 1.96c-0.241 0.165-0.533 0.262-0.847 0.262-0.828 0-1.5-0.672-1.5-1.5 0-0.541 0.286-1.014 0.715-1.278z"></path>
</symbol>
<symbol id="icon-icon-home" viewBox="0 0 32 32">
<title>icon-home</title>
<path d="M32 16.5c0 0.828-0.672 1.499-1.5 1.499-0.395 0-0.752-0.155-1.020-0.405l-0.003 0.004-13.477-13.476-13.447 13.446c-0.271 0.267-0.643 0.431-1.053 0.431-0.828 0-1.5-0.671-1.5-1.499 0-0.425 0.177-0.808 0.461-1.081l14.458-14.459c0.273-0.283 0.656-0.46 1.081-0.46v0 0c0 0 0 0 0.001 0 0.026 0 0.052 0 0.079 0.002 0.004 0 0.008 0.001 0.012 0.001 0.023 0.001 0.045 0.003 0.068 0.005 0.001 0 0.002 0 0.004 0.001 0.367 0.040 0.694 0.212 0.933 0.468l0.001-0.001 5.902 5.902v-1.378c0-0.829 0.671-1.5 1.5-1.5 0.828 0 1.5 0.671 1.5 1.5v4.378l5.598 5.598-0.004 0.004c0.25 0.268 0.406 0.625 0.406 1.020zM29 19v10.5c0 0.828-0.672 1.5-1.5 1.5h-3v-12h-6v12h-14c-0.828 0-1.5-0.672-1.5-1.5v-10.5l13-13 13 13zM13.5 19h-6v6h6v-6z"></path>
</symbol>
<symbol id="icon-instagram-sketched" viewBox="0 0 32 32">
<title>instagram-sketched</title>
<path d="M16.005 7.784c-4.537 0-8.211 3.677-8.211 8.211 0 4.537 3.677 8.211 8.211 8.211 4.537 0 8.211-3.677 8.211-8.211 0-4.537-3.677-8.211-8.211-8.211zM16.005 21.324c-2.945 0-5.329-2.385-5.329-5.329s2.385-5.329 5.329-5.329 5.329 2.385 5.329 5.329c0.001 2.944-2.384 5.329-5.329 5.329z"></path>
<path d="M22.597 0.101c-2.944-0.137-10.236-0.131-13.183 0-2.589 0.121-4.873 0.747-6.715 2.588-3.077 3.077-2.684 7.224-2.684 13.305 0 6.224-0.347 10.275 2.684 13.305 3.089 3.088 7.296 2.684 13.305 2.684 6.165 0 8.293 0.004 10.473-0.84 2.964-1.151 5.201-3.8 5.42-8.559 0.139-2.945 0.131-10.236 0-13.183-0.264-5.617-3.279-9.024-9.301-9.301zM27.257 27.264c-2.017 2.017-4.816 1.837-11.291 1.837-6.667 0-9.34 0.099-11.291-1.857-2.247-2.236-1.84-5.827-1.84-11.271 0-7.367-0.756-12.672 6.637-13.051 1.699-0.060 2.199-0.080 6.475-0.080l0.060 0.040c7.105 0 12.68-0.744 13.015 6.648 0.076 1.687 0.093 2.193 0.093 6.463-0.001 6.589 0.124 9.279-1.859 11.271z"></path>
<path d="M26.46 7.46c0 1.060-0.859 1.919-1.919 1.919s-1.919-0.859-1.919-1.919c0-1.060 0.859-1.919 1.919-1.919s1.919 0.859 1.919 1.919z"></path>
</symbol>
<symbol id="icon-pinterest" viewBox="0 0 32 32">
<title>pinterest</title>
<path d="M7.684 17.389c0.040-0.1 0.441-1.639 0.469-1.744-0.625-0.941-1.32-4.023-0.787-6.525 0.575-3.671 4.465-5.475 8.137-5.475v-0.007c4.598 0.003 8.040 2.561 8.044 6.967 0.003 3.449-2.075 8.007-5.622 8.007-0.001 0-0.002 0-0.003 0-1.266 0-2.869-0.574-3.29-1.138-0.485-0.65-0.604-1.452-0.348-2.309 0.628-2.005 1.429-4.407 1.523-6.009 0.087-1.511-0.986-2.495-2.377-2.495-1.047 0-2.406 0.608-3.083 2.316-0.56 1.419-0.548 2.905 0.037 4.542 0.228 0.64-1.010 4.812-1.406 6.17-0.985 3.375-2.334 7.644-2.045 10.022l0.278 2.288 1.398-1.832c1.935-2.532 3.935-9.083 4.468-10.677 1.576 2.041 4.857 2.099 5.24 2.099 4.699 0 10.027-4.666 9.876-11.16-0.133-5.695-4.301-10.43-11.79-10.43v0.007c-7.124 0-11.281 3.802-12.299 8.606-0.932 4.455 1.141 7.845 3.581 8.775z"></path>
</symbol>
<symbol id="icon-search" viewBox="0 0 32 32">
<title>search</title>
<path  d="M31.805 29.919l-9.296-9.296c1.763-2.177 2.824-4.944 2.824-7.957 0-6.984-5.682-12.667-12.667-12.667s-12.667 5.682-12.667 12.667 5.682 12.667 12.667 12.667c3.013 0 5.78-1.061 7.957-2.824l9.296 9.296c0.26 0.26 0.682 0.26 0.943 0l0.943-0.943c0.26-0.26 0.26-0.683-0-0.943zM12.667 22.667c-5.514 0-10-4.486-10-10s4.486-10 10-10 10 4.486 10 10-4.486 10-10 10z"></path>
</symbol>
<symbol id="icon-shopping-cart" viewBox="0 0 32 32">
<title>shopping-cart</title>
<path  d="M29.658 2.909h-23.84v0.209l-0.298-1.023c-0.359-1.234-1.508-2.095-2.793-2.095h-2c-0.402 0-0.727 0.325-0.727 0.727s0.325 0.727 0.727 0.727h2c0.643 0 1.217 0.43 1.396 1.048l4.527 15.521-2.32 2.899c-0.331 0.414-0.513 0.933-0.513 1.463 0 1.292 1.050 2.342 2.342 2.342h20.203c0.402 0 0.727-0.325 0.727-0.727s-0.325-0.727-0.727-0.727h-20.203c-0.489 0-0.888-0.398-0.888-0.888 0-0.201 0.069-0.398 0.195-0.555l2.337-2.921h14.265c1.121 0 2.155-0.656 2.633-1.67l5.075-10.785c0.146-0.31 0.222-0.655 0.222-0.996v-0.206c0-1.292-1.050-2.342-2.342-2.342zM30.545 5.457c0 0.13-0.029 0.261-0.085 0.378l-5.075 10.784c-0.239 0.507-0.756 0.835-1.317 0.835h-14.070l-3.818-13.091h23.476c0.489 0 0.888 0.398 0.888 0.888v0.206z"></path>
<path  d="M8.727 26.182c-1.604 0-2.909 1.305-2.909 2.909s1.305 2.909 2.909 2.909 2.909-1.305 2.909-2.909-1.305-2.909-2.909-2.909zM8.727 30.545c-0.802 0-1.455-0.653-1.455-1.455s0.653-1.455 1.455-1.455c0.802 0 1.455 0.653 1.455 1.455s-0.653 1.455-1.455 1.455z"></path>
<path  d="M26.182 26.182c-1.604 0-2.909 1.305-2.909 2.909s1.305 2.909 2.909 2.909 2.909-1.305 2.909-2.909-1.305-2.909-2.909-2.909zM26.182 30.545c-0.802 0-1.455-0.653-1.455-1.455s0.653-1.455 1.455-1.455c0.802 0 1.455 0.653 1.455 1.455s-0.653 1.455-1.455 1.455z"></path>
</symbol>
<symbol id="icon-social" viewBox="0 0 32 32">
<title>social</title>
<path d="M18.478 32v-14.596h4.897l0.735-5.69h-5.632v-3.632c0-1.647 0.455-2.769 2.82-2.769l3.010-0.001v-5.089c-0.521-0.068-2.308-0.223-4.388-0.223-4.343 0-7.317 2.651-7.317 7.519v4.196h-4.912v5.69h4.912v14.596h5.874z"></path>
</symbol>
<symbol id="icon-twitter" viewBox="0 0 32 32">
<title>twitter</title>
<path d="M11.938 29.128c-1.384 0-2.808-0.112-4.241-0.337-2.524-0.396-5.078-1.716-5.801-2.111l-1.896-1.037 2.053-0.675c2.244-0.738 3.609-1.196 5.299-1.912-1.692-0.819-2.996-2.293-3.624-4.198l-0.478-1.45 0.392 0.060c-0.371-0.374-0.665-0.754-0.892-1.1-0.808-1.228-1.236-2.728-1.145-4.014l0.090-1.265 0.758 0.293c-0.32-0.604-0.551-1.248-0.686-1.924-0.331-1.647-0.054-3.398 0.78-4.928l0.66-1.211 0.883 1.060c2.791 3.353 6.327 5.342 10.523 5.924-0.171-1.181-0.043-2.322 0.382-3.344 0.495-1.19 1.375-2.199 2.545-2.918 1.299-0.799 2.875-1.186 4.437-1.090 1.657 0.102 3.161 0.723 4.356 1.797 0.584-0.152 1.013-0.313 1.594-0.532 0.35-0.132 0.746-0.281 1.242-0.452l1.828-0.63-1.192 3.405c0.079-0.007 0.16-0.012 0.244-0.016l1.952-0.088-1.154 1.577c-0.066 0.090-0.083 0.116-0.106 0.151-0.093 0.14-0.209 0.314-1.792 2.429-0.396 0.53-0.594 1.219-0.558 1.942 0.14 2.748-0.197 5.234-1.003 7.39-0.762 2.039-1.943 3.789-3.51 5.2-1.939 1.746-4.411 2.942-7.349 3.553-1.441 0.3-2.988 0.45-4.59 0.45z"></path>
</symbol>
</defs>
</svg>
