<svg height="512pt" viewBox="0 -43 512 512" width="512pt" xmlns="http://www.w3.org/2000/svg"><path fill="rgb(149 ,225 ,211)" d="m453.332031 0h-394.664062c-32.363281 0-58.667969 26.304688-58.667969 58.667969v309.332031c0 32.363281 26.304688 58.667969 58.667969 58.667969h394.664062c32.363281 0 58.667969-26.304688 58.667969-58.667969v-309.332031c0-32.363281-26.304688-58.667969-58.667969-58.667969zm26.667969 368c0 14.699219-11.96875 26.667969-26.667969 26.667969h-394.664062c-14.699219 0-26.667969-11.96875-26.667969-26.667969v-309.332031c0-14.699219 11.96875-26.667969 26.667969-26.667969h394.664062c14.699219 0 26.667969 11.96875 26.667969 26.667969zm0 0"/><path fill="rgb(149 ,225 ,211)" d="m154.667969 64h-32c-32.363281 0-58.667969 26.304688-58.667969 58.667969v32c0 8.832031 7.167969 16 16 16s16-7.167969 16-16v-32c0-14.699219 11.96875-26.667969 26.667969-26.667969h32c8.832031 0 16-7.167969 16-16s-7.167969-16-16-16zm0 0"/><path fill="rgb(149 ,225 ,211)" d="m432 256c-8.832031 0-16 7.167969-16 16v32c0 14.699219-11.96875 26.667969-26.667969 26.667969h-32c-8.832031 0-16 7.167969-16 16s7.167969 16 16 16h32c32.363281 0 58.667969-26.304688 58.667969-58.667969v-32c0-8.832031-7.167969-16-16-16zm0 0"/></svg>