<?xml version="1.0" encoding="iso-8859-1"?>
<!-- Generator: Adobe Illustrator 19.0.0, SVG Export Plug-In . SVG Version: 6.00 Build 0)  -->
<svg version="1.1" id="Capa_1" xmlns="http://www.w3.org/2000/svg" xmlns:xlink="http://www.w3.org/1999/xlink" x="0px" y="0px"
	 viewBox="0 0 512 512" style="enable-background:new 0 0 512 512;" xml:space="preserve">
<g>
	<g>
		<g>
			<path d="M464,0H48C21.49,0,0,21.49,0,48v320c0,8.837,7.163,16,16,16h141.6l-11.36,80H128c-8.837,0-16,7.163-16,16H80v32h352v-32
				h-32c0-8.837-7.163-16-16-16h-18.08l-11.36-80H496c8.837,0,16-7.163,16-16V48C512,21.49,490.51,0,464,0z M178.4,464l11.36-80
				h132.32l11.36,80H178.4z M480,352H32v-48h448V352z M96,272V96h320v176H96z M480,272h-32V80c0-8.837-7.163-16-16-16H80
				c-8.837,0-16,7.163-16,16v192H32V48c0-8.837,7.163-16,16-16h416c8.837,0,16,7.163,16,16V272z"/>
			<path d="M299.36,164.64c-6.241-6.204-16.319-6.204-22.56,0l-4.64,4.64l-20.8-20.64c-6.241-6.204-16.319-6.204-22.56,0l-48,48
				c-6.274,6.223-6.316,16.353-0.093,22.627c2.988,3.013,7.05,4.715,11.293,4.733h128c8.836,0.051,16.041-7.07,16.093-15.907
				c0.025-4.299-1.681-8.426-4.733-11.453L299.36,164.64z"/>
		</g>
	</g>
</g>
<g>
</g>
<g>
</g>
<g>
</g>
<g>
</g>
<g>
</g>
<g>
</g>
<g>
</g>
<g>
</g>
<g>
</g>
<g>
</g>
<g>
</g>
<g>
</g>
<g>
</g>
<g>
</g>
<g>
</g>
</svg>
